<svg width="24" height="14" viewBox="0 0 24 14" fill="none" xmlns="http://www.w3.org/2000/svg">
<path d="M18.543 10.8091C18.543 11.5701 18.1886 12.2391 17.648 12.6666H5.43797C4.89734 12.2391 4.54297 11.5701 4.54297 10.8091C4.54297 9.51628 5.55047 8.46854 6.79297 8.46854H7.23266C6.81328 8.08722 6.54297 7.53296 6.54297 6.90816C6.54297 5.759 7.43828 4.82765 8.54297 4.82765H9.04297C10.4236 4.82765 11.543 3.66321 11.543 2.22701C11.543 1.66202 11.3652 1.14254 11.0708 0.716038C11.2258 0.690682 11.3814 0.666626 11.543 0.666626C13.1998 0.666626 14.543 2.06382 14.543 3.78739C14.543 4.15408 14.4708 4.50094 14.3592 4.82765H14.543C15.6477 4.82765 16.543 5.759 16.543 6.90816C16.543 7.53296 16.2727 8.08722 15.8533 8.46854H16.293C17.5355 8.46854 18.543 9.51628 18.543 10.8091Z" stroke="#E1E1E1" stroke-width="1.33333" stroke-linecap="round" stroke-linejoin="round"/>
</svg>
